# xmcd
#
# Track frame offsets: 
#        150
#        4483
#        27666
#        41933
#        57721
#        78497
#        92527
#        110267
#        130870
#        146176
#        163503
#        176585
#        193661
#        213273
#        227828
#        247075
#        271157
#        291115
#
# Disc length: 4157 seconds
#
# Revision: 7
# Processed by: cddbd v1.5.2PL0 Copyright (c) Steve Scherf et al.
# Submitted via: ExactAudioCopyFreeDBPlugin 1.0
#
DISCID=0f103b12
DTITLE=Green day - 21st century breakdown
DYEAR=2009
DGENRE=Punk Rock
TTITLE0=Song Of The Century
TTITLE1=21st Century Breakdown
TTITLE2=Know Your Enemy
TTITLE3=¡Viva La Gloria!
TTITLE4=Before The Lobotomy
TTITLE5=Christian's Inferno
TTITLE6=Last Night On Earth
TTITLE7=East Jesus Nowhere
TTITLE8=Peacemaker
TTITLE9=Last Of The American Girls
TTITLE10=Murder City
TTITLE11=¿Viva La Gloria? (Little Girl)
TTITLE12=Restless Heart Syndrome
TTITLE13=Horseshoes And Handgrenades
TTITLE14=The Static Age
TTITLE15=21 Guns
TTITLE16=American Eulogy
TTITLE17=See The Light
EXTD=YEAR: 2009
EXTT0=
EXTT1=
EXTT2=
EXTT3=
EXTT4=
EXTT5=
EXTT6=
EXTT7=
EXTT8=
EXTT9=
EXTT10=
EXTT11=
EXTT12=
EXTT13=
EXTT14=
EXTT15=
EXTT16=
EXTT17=
PLAYORDER=
